<?xml version="1.0" standalone="no"?>
<!DOCTYPE svg PUBLIC "-//W3C//DTD SVG 20010904//EN"
 "http://www.w3.org/TR/2001/REC-SVG-20010904/DTD/svg10.dtd">
<svg version="1.0" xmlns="http://www.w3.org/2000/svg"
 width="625.000000pt" height="625.000000pt" viewBox="0 0 625.000000 625.000000"
 preserveAspectRatio="xMidYMid meet">
<metadata>
Created by potrace 1.11, written by Peter Selinger 2001-2013
</metadata>
<g transform="translate(0.000000,625.000000) scale(0.100000,-0.100000)"
fill="#000000" stroke="none">
<path d="M4767 5893 c-1 -1 -31 -4 -67 -7 -277 -22 -494 -119 -676 -300 -122
-122 -194 -242 -233 -387 -32 -120 -34 -142 -36 -414 l-1 -260 -582 -1 c-320
0 -583 2 -583 5 -1 3 -3 22 -4 41 -3 45 -14 178 -21 255 -3 33 -7 67 -9 75 -2
8 -7 35 -10 60 -72 536 -569 908 -1195 895 -69 -1 -152 -7 -185 -13 -33 -6
-72 -13 -86 -16 -104 -17 -278 -81 -388 -143 -175 -97 -343 -254 -428 -398
-61 -105 -134 -292 -147 -379 -4 -21 -8 -41 -10 -45 -18 -31 -22 -305 -6 -421
60 -430 334 -790 689 -910 141 -47 333 -68 594 -64 l148 2 -3 -284 c-2 -247
-4 -284 -18 -285 -8 -1 -35 -2 -60 -4 -122 -7 -241 -17 -300 -26 -62 -9 -77
-12 -134 -24 -184 -38 -387 -151 -544 -300 -245 -233 -383 -549 -384 -880 -2
-514 316 -1000 747 -1143 156 -52 385 -73 555 -51 471 61 906 373 1084 778 31
70 84 263 84 301 -1 8 2 31 5 50 3 19 9 80 13 135 3 55 8 102 11 105 2 2 260
5 574 5 l569 0 1 -115 c0 -63 2 -131 4 -150 23 -291 69 -437 200 -635 209
-314 595 -515 995 -518 136 -1 166 2 278 25 466 97 825 473 928 973 29 142 25
386 -9 531 -88 384 -328 695 -650 844 -80 37 -165 66 -217 76 -14 2 -47 9 -75
14 -53 10 -158 19 -293 24 -46 2 -86 6 -89 9 -5 6 -5 539 1 544 1 2 108 5 237
7 129 3 243 7 255 10 12 2 45 7 75 11 80 10 204 52 287 96 271 145 460 415
527 755 18 88 24 311 12 409 -53 423 -329 808 -707 987 -155 73 -234 100 -403
133 -49 10 -314 25 -320 18z m216 -338 c23 -4 54 -9 69 -11 81 -13 249 -78
348 -135 147 -85 294 -238 367 -384 106 -210 131 -458 70 -700 -27 -108 -100
-232 -194 -328 -108 -111 -227 -160 -438 -182 -96 -10 -992 -26 -1105 -20 -69
4 -437 9 -818 11 -380 1 -696 5 -701 8 -5 3 -9 87 -8 186 l0 180 41 0 c467 -2
2588 9 2605 13 91 24 129 43 177 91 106 106 139 298 80 468 -97 278 -335 433
-651 424 -126 -4 -149 -8 -219 -41 -68 -32 -115 -82 -137 -147 -15 -45 -18
-81 -16 -251 2 -109 0 -202 -3 -208 -4 -6 -74 -8 -186 -7 l-179 3 -2 70 c-8
328 -4 389 27 494 31 100 86 198 148 260 101 102 287 188 442 207 30 3 56 7
58 9 5 4 182 -3 225 -10z m-3413 -50 c100 -19 148 -34 224 -70 271 -127 401
-308 434 -605 9 -79 11 -1915 2 -1924 -5 -4 -240 -9 -335 -7 l-30 1 1 927 c1
524 -2 953 -7 986 -31 197 -202 320 -454 326 -131 3 -270 -26 -380 -82 -94
-47 -186 -172 -219 -297 -18 -69 -18 -205 -1 -272 29 -109 111 -225 188 -264
58 -30 167 -43 349 -42 98 1 181 -1 184 -5 10 -9 11 -357 2 -363 -12 -7 -426
-8 -463 -1 -16 4 -46 9 -65 12 -177 29 -348 153 -450 324 -82 138 -121 290
-122 471 -1 301 99 522 312 692 116 93 307 175 450 194 25 3 47 8 50 11 10 9
269 0 330 -12z m3320 -675 c85 -18 152 -41 183 -63 18 -12 43 -50 64 -96 19
-42 40 -86 46 -98 18 -39 18 -39 -218 -43 -71 -1 -142 -1 -157 -1 l-26 1 3
158 c1 86 3 158 4 160 0 1 11 0 24 -2 12 -3 47 -10 77 -16z m-3375 -39 c3 -6
8 -63 11 -128 3 -65 8 -121 10 -124 8 -14 -24 -16 -201 -13 -174 3 -221 6
-219 15 1 2 4 31 9 64 4 32 9 68 11 80 3 11 5 32 6 48 1 36 10 38 238 53 58 3
107 8 109 10 8 7 20 4 26 -5z m2242 -1334 c5 -6 7 -160 4 -457 l-1 -95 -592 0
-593 0 -1 268 c0 147 3 271 6 277 3 5 39 10 80 12 142 6 1090 1 1097 -5z m713
-432 c0 -391 -2 -445 -15 -445 -14 0 -16 -59 -15 -497 1 -541 6 -596 55 -694
93 -182 359 -286 584 -228 121 31 211 94 280 199 68 102 91 182 91 316 0 243
-139 443 -340 492 -45 11 -191 24 -282 26 l-48 1 0 190 0 191 78 -2 c284 -8
435 -42 568 -130 369 -245 499 -763 299 -1189 -143 -303 -413 -480 -745 -490
-95 -2 -136 1 -237 19 -40 8 -168 53 -208 74 -16 9 -32 16 -35 17 -18 2 -135
90 -185 140 -120 119 -186 238 -226 410 -23 98 -24 108 -21 555 1 250 7 574
12 720 6 146 11 379 12 518 l2 252 188 0 188 0 0 -445z m-757 -464 c16 -1 17
-15 15 -192 l-3 -191 -835 -4 c-1296 -7 -1622 -11 -1665 -19 -166 -31 -300
-124 -372 -261 -141 -266 -9 -638 247 -698 81 -19 233 -14 310 9 264 81 471
324 474 558 1 34 4 64 8 67 4 3 85 5 180 4 l173 -1 1 -74 c8 -378 -261 -742
-663 -898 -219 -85 -490 -87 -676 -4 -177 79 -318 227 -402 422 -32 75 -52
138 -61 186 -37 216 -18 396 61 562 105 223 288 387 527 471 73 26 108 35 193
49 11 1 250 6 530 9 281 4 511 7 512 8 1 1 1408 -2 1446 -3z m1252 -712 c95
-18 112 -27 135 -74 40 -84 12 -220 -57 -270 -28 -20 -122 -32 -166 -21 -34 8
-65 38 -84 82 -12 28 -17 76 -20 172 l-3 134 73 -7 c39 -4 95 -11 122 -16z
m-3496 -21 l92 -2 -6 -25 c-4 -14 -8 -33 -10 -43 -20 -98 -159 -211 -313 -254
-74 -20 -81 -16 -83 51 0 22 -3 49 -5 60 -3 11 -5 38 -6 61 -3 73 69 136 173
150 24 3 46 8 48 10 2 2 7 1 11 -1 4 -2 49 -5 99 -7z"/>
</g>
</svg>
